<mxfile host="Electron" modified="2023-10-13T11:26:36.560Z" agent="Mozilla/5.0 (Windows NT 10.0; Win64; x64) AppleWebKit/537.36 (KHTML, like Gecko) draw.io/21.6.8 Chrome/114.0.5735.289 Electron/25.5.0 Safari/537.36" etag="2pQn__YntsUdxukVpTxt" version="21.6.8" type="device">
  <diagram name="Страница — 1" id="h6O-i2VQVPXQrtIOIZVZ">
    <mxGraphModel dx="1276" dy="606" grid="1" gridSize="10" guides="1" tooltips="1" connect="1" arrows="1" fold="1" page="1" pageScale="1" pageWidth="827" pageHeight="1169" math="0" shadow="0">
      <root>
        <mxCell id="0" />
        <mxCell id="1" parent="0" />
        <mxCell id="K43M9OhwlHXp2JkP5aCC-22" style="edgeStyle=orthogonalEdgeStyle;rounded=0;orthogonalLoop=1;jettySize=auto;html=1;exitX=0.5;exitY=0;exitDx=0;exitDy=0;entryX=0.5;entryY=1;entryDx=0;entryDy=0;" parent="1" source="K43M9OhwlHXp2JkP5aCC-7" target="K43M9OhwlHXp2JkP5aCC-6" edge="1">
          <mxGeometry relative="1" as="geometry" />
        </mxCell>
        <mxCell id="K43M9OhwlHXp2JkP5aCC-23" value="" style="group" parent="1" vertex="1" connectable="0">
          <mxGeometry x="120" y="390" width="120" height="90" as="geometry" />
        </mxCell>
        <mxCell id="K43M9OhwlHXp2JkP5aCC-7" value="Информация о пользователе" style="rounded=0;whiteSpace=wrap;html=1;" parent="K43M9OhwlHXp2JkP5aCC-23" vertex="1">
          <mxGeometry width="120" height="30" as="geometry" />
        </mxCell>
        <mxCell id="K43M9OhwlHXp2JkP5aCC-8" value="-userID:int" style="rounded=0;whiteSpace=wrap;html=1;align=left;" parent="K43M9OhwlHXp2JkP5aCC-23" vertex="1">
          <mxGeometry y="30" width="120" height="20" as="geometry" />
        </mxCell>
        <mxCell id="K43M9OhwlHXp2JkP5aCC-10" value="+add()&lt;br&gt;+delete()" style="rounded=0;whiteSpace=wrap;html=1;align=left;" parent="K43M9OhwlHXp2JkP5aCC-23" vertex="1">
          <mxGeometry y="50" width="120" height="40" as="geometry" />
        </mxCell>
        <mxCell id="K43M9OhwlHXp2JkP5aCC-24" value="" style="group" parent="1" vertex="1" connectable="0">
          <mxGeometry x="120" y="200" width="120" height="160" as="geometry" />
        </mxCell>
        <mxCell id="K43M9OhwlHXp2JkP5aCC-4" value="Информация о регистрации" style="rounded=0;whiteSpace=wrap;html=1;" parent="K43M9OhwlHXp2JkP5aCC-24" vertex="1">
          <mxGeometry width="120" height="30" as="geometry" />
        </mxCell>
        <mxCell id="K43M9OhwlHXp2JkP5aCC-5" value="-registrationID:int&lt;br&gt;+name:string&lt;br&gt;+surname:string&lt;br&gt;+middlename:string&lt;br&gt;+age:string&lt;br&gt;+gender:string&lt;br&gt;+adress:string" style="rounded=0;whiteSpace=wrap;html=1;align=left;" parent="K43M9OhwlHXp2JkP5aCC-24" vertex="1">
          <mxGeometry y="30" width="120" height="100" as="geometry" />
        </mxCell>
        <mxCell id="K43M9OhwlHXp2JkP5aCC-6" value="+create()&lt;br&gt;+update()" style="rounded=0;whiteSpace=wrap;html=1;align=left;" parent="K43M9OhwlHXp2JkP5aCC-24" vertex="1">
          <mxGeometry y="130" width="120" height="30" as="geometry" />
        </mxCell>
        <mxCell id="K43M9OhwlHXp2JkP5aCC-25" value="" style="group" parent="1" vertex="1" connectable="0">
          <mxGeometry x="280" y="200" width="120" height="130" as="geometry" />
        </mxCell>
        <mxCell id="K43M9OhwlHXp2JkP5aCC-1" value="-loginID:int&lt;br&gt;-login:string&lt;br&gt;-password: string" style="rounded=0;whiteSpace=wrap;html=1;align=left;" parent="K43M9OhwlHXp2JkP5aCC-25" vertex="1">
          <mxGeometry y="30" width="120" height="60" as="geometry" />
        </mxCell>
        <mxCell id="K43M9OhwlHXp2JkP5aCC-2" value="Информация об авторизации" style="rounded=0;whiteSpace=wrap;html=1;" parent="K43M9OhwlHXp2JkP5aCC-25" vertex="1">
          <mxGeometry width="120" height="30" as="geometry" />
        </mxCell>
        <mxCell id="K43M9OhwlHXp2JkP5aCC-3" value="+create()&lt;br&gt;+validate()&lt;br&gt;+update()" style="rounded=0;whiteSpace=wrap;html=1;align=left;" parent="K43M9OhwlHXp2JkP5aCC-25" vertex="1">
          <mxGeometry y="90" width="120" height="40" as="geometry" />
        </mxCell>
        <mxCell id="K43M9OhwlHXp2JkP5aCC-26" value="" style="group" parent="1" vertex="1" connectable="0">
          <mxGeometry x="280" y="380" width="120" height="100" as="geometry" />
        </mxCell>
        <mxCell id="K43M9OhwlHXp2JkP5aCC-11" value="Тип пользователя" style="rounded=0;whiteSpace=wrap;html=1;" parent="K43M9OhwlHXp2JkP5aCC-26" vertex="1">
          <mxGeometry width="120" height="20" as="geometry" />
        </mxCell>
        <mxCell id="K43M9OhwlHXp2JkP5aCC-12" value="-typeID:int&lt;br&gt;+name:string&lt;br&gt;+description:string" style="rounded=0;whiteSpace=wrap;html=1;align=left;" parent="K43M9OhwlHXp2JkP5aCC-26" vertex="1">
          <mxGeometry y="20" width="120" height="50" as="geometry" />
        </mxCell>
        <mxCell id="K43M9OhwlHXp2JkP5aCC-13" value="+create()&lt;br&gt;+update()" style="rounded=0;whiteSpace=wrap;html=1;align=left;" parent="K43M9OhwlHXp2JkP5aCC-26" vertex="1">
          <mxGeometry y="70" width="120" height="30" as="geometry" />
        </mxCell>
        <mxCell id="K43M9OhwlHXp2JkP5aCC-27" value="" style="group" parent="1" vertex="1" connectable="0">
          <mxGeometry x="440" y="375" width="120" height="100" as="geometry" />
        </mxCell>
        <mxCell id="K43M9OhwlHXp2JkP5aCC-19" value="Действия" style="rounded=0;whiteSpace=wrap;html=1;" parent="K43M9OhwlHXp2JkP5aCC-27" vertex="1">
          <mxGeometry width="120" height="20" as="geometry" />
        </mxCell>
        <mxCell id="K43M9OhwlHXp2JkP5aCC-20" value="-activityID:int&lt;br&gt;-description:string&lt;br&gt;-date:string" style="rounded=0;whiteSpace=wrap;html=1;align=left;" parent="K43M9OhwlHXp2JkP5aCC-27" vertex="1">
          <mxGeometry y="20" width="120" height="50" as="geometry" />
        </mxCell>
        <mxCell id="K43M9OhwlHXp2JkP5aCC-21" value="+create()&lt;br&gt;+update()" style="rounded=0;whiteSpace=wrap;html=1;align=left;" parent="K43M9OhwlHXp2JkP5aCC-27" vertex="1">
          <mxGeometry y="70" width="120" height="30" as="geometry" />
        </mxCell>
        <mxCell id="K43M9OhwlHXp2JkP5aCC-28" value="" style="group" parent="1" vertex="1" connectable="0">
          <mxGeometry x="440" y="200" width="120" height="130" as="geometry" />
        </mxCell>
        <mxCell id="K43M9OhwlHXp2JkP5aCC-14" value="-logs:int&lt;br&gt;+userAccount:int&lt;br&gt;+userType&lt;br&gt;+loginTime:string&lt;br&gt;+loginDate:string" style="rounded=0;whiteSpace=wrap;html=1;align=left;" parent="K43M9OhwlHXp2JkP5aCC-28" vertex="1">
          <mxGeometry y="30" width="120" height="80" as="geometry" />
        </mxCell>
        <mxCell id="K43M9OhwlHXp2JkP5aCC-15" value="Журнал" style="rounded=0;whiteSpace=wrap;html=1;" parent="K43M9OhwlHXp2JkP5aCC-28" vertex="1">
          <mxGeometry width="120" height="30" as="geometry" />
        </mxCell>
        <mxCell id="K43M9OhwlHXp2JkP5aCC-16" value="+print()" style="rounded=0;whiteSpace=wrap;html=1;" parent="K43M9OhwlHXp2JkP5aCC-28" vertex="1">
          <mxGeometry y="110" width="120" height="20" as="geometry" />
        </mxCell>
        <mxCell id="K43M9OhwlHXp2JkP5aCC-29" value="" style="rhombus;whiteSpace=wrap;html=1;" parent="1" vertex="1">
          <mxGeometry x="490" y="475" width="20" height="15" as="geometry" />
        </mxCell>
        <mxCell id="K43M9OhwlHXp2JkP5aCC-30" value="" style="rhombus;whiteSpace=wrap;html=1;fillColor=#000000;" parent="1" vertex="1">
          <mxGeometry x="490" y="360" width="20" height="15" as="geometry" />
        </mxCell>
        <mxCell id="K43M9OhwlHXp2JkP5aCC-32" value="" style="rhombus;whiteSpace=wrap;html=1;fillColor=#000000;" parent="1" vertex="1">
          <mxGeometry x="260" y="422.5" width="20" height="15" as="geometry" />
        </mxCell>
        <mxCell id="K43M9OhwlHXp2JkP5aCC-34" value="" style="endArrow=none;html=1;rounded=0;entryX=0;entryY=0.5;entryDx=0;entryDy=0;exitX=1;exitY=0.5;exitDx=0;exitDy=0;" parent="1" source="K43M9OhwlHXp2JkP5aCC-8" target="K43M9OhwlHXp2JkP5aCC-32" edge="1">
          <mxGeometry width="50" height="50" relative="1" as="geometry">
            <mxPoint x="260" y="380" as="sourcePoint" />
            <mxPoint x="310" y="330" as="targetPoint" />
          </mxGeometry>
        </mxCell>
        <mxCell id="K43M9OhwlHXp2JkP5aCC-35" value="" style="endArrow=none;html=1;rounded=0;exitX=0.5;exitY=0;exitDx=0;exitDy=0;entryX=0.5;entryY=1;entryDx=0;entryDy=0;" parent="1" source="K43M9OhwlHXp2JkP5aCC-11" target="K43M9OhwlHXp2JkP5aCC-3" edge="1">
          <mxGeometry width="50" height="50" relative="1" as="geometry">
            <mxPoint x="380" y="370" as="sourcePoint" />
            <mxPoint x="430" y="320" as="targetPoint" />
          </mxGeometry>
        </mxCell>
        <mxCell id="K43M9OhwlHXp2JkP5aCC-36" value="" style="endArrow=none;html=1;rounded=0;entryX=1;entryY=0.5;entryDx=0;entryDy=0;exitX=-0.019;exitY=0.363;exitDx=0;exitDy=0;exitPerimeter=0;" parent="1" source="K43M9OhwlHXp2JkP5aCC-14" target="K43M9OhwlHXp2JkP5aCC-1" edge="1">
          <mxGeometry width="50" height="50" relative="1" as="geometry">
            <mxPoint x="380" y="370" as="sourcePoint" />
            <mxPoint x="430" y="320" as="targetPoint" />
          </mxGeometry>
        </mxCell>
        <mxCell id="K43M9OhwlHXp2JkP5aCC-37" value="" style="endArrow=none;html=1;rounded=0;entryX=0.5;entryY=0;entryDx=0;entryDy=0;exitX=0.5;exitY=1;exitDx=0;exitDy=0;" parent="1" source="K43M9OhwlHXp2JkP5aCC-16" target="K43M9OhwlHXp2JkP5aCC-30" edge="1">
          <mxGeometry width="50" height="50" relative="1" as="geometry">
            <mxPoint x="420" y="420" as="sourcePoint" />
            <mxPoint x="470" y="370" as="targetPoint" />
          </mxGeometry>
        </mxCell>
        <mxCell id="K43M9OhwlHXp2JkP5aCC-38" value="" style="endArrow=none;html=1;rounded=0;entryX=0.5;entryY=1;entryDx=0;entryDy=0;exitX=0.5;exitY=1;exitDx=0;exitDy=0;edgeStyle=orthogonalEdgeStyle;" parent="1" source="K43M9OhwlHXp2JkP5aCC-10" target="K43M9OhwlHXp2JkP5aCC-29" edge="1">
          <mxGeometry width="50" height="50" relative="1" as="geometry">
            <mxPoint x="210" y="530" as="sourcePoint" />
            <mxPoint x="470" y="370" as="targetPoint" />
          </mxGeometry>
        </mxCell>
      </root>
    </mxGraphModel>
  </diagram>
</mxfile>
